<svg xmlns="http://www.w3.org/2000/svg" version="1.1" xmlns:xlink="http://www.w3.org/1999/xlink" width="2000" height="144" viewBox="0 0 2000 144"><svg xml:space="preserve" width="2000" height="144" data-version="2" data-id="lg_KSIe0iAVJ6CGqX6GI6" viewBox="0 0 446 144" x="0" y="0"><rect width="100%" height="100%" fill="transparent"></rect><path fill="#000000" d="M4.645 32.66h40.57v8.49h-16.13v52.41h-8.82V41.15H4.645Z" paint-order="stroke"></path><rect width="40.57" height="60.9" x="-20.29" y="-30.45" fill="none" rx="0" ry="0" transform="translate(25.43 63.61)"></rect><path fill="#000000" d="m46.895 93.56 26.8-63.42h.5l26.8 63.42h-10.17l-19.48-49.64 6.3-4.12-22.01 53.76Zm16.21-22.84h21.84l3.03 7.56h-27.47Z" paint-order="stroke"></path><rect width="54.1" height="63.42" x="-27.05" y="-31.71" fill="none" rx="0" ry="0" transform="translate(74.44 62.35)"></rect><path fill="#000000" d="M143.665 44.17q-3.19-1.68-6.89-2.85-3.69-1.18-7.14-1.18-4.79 0-7.56 2.14-2.77 2.14-2.77 5.92 0 2.61 1.85 4.54 1.85 1.93 4.79 3.36t6.21 2.69q3.78 1.34 7.31 3.4 3.53 2.06 5.8 5.5 2.26 3.45 2.26 9.24 0 4.79-2.43 8.74-2.44 3.95-6.93 6.26-4.5 2.31-10.8 2.31-5.88 0-11.13-1.89-5.25-1.89-9.03-4.5l3.95-6.97q2.94 2.27 7.23 3.95 4.28 1.68 8.14 1.68 2.86 0 5.55-.97 2.69-.96 4.49-3.06 1.81-2.1 1.81-5.55 0-2.85-1.6-4.87-1.59-2.02-4.16-3.44-2.56-1.43-5.5-2.52-2.85-1.1-5.84-2.4-2.98-1.3-5.46-3.23-2.47-1.93-4.03-4.75-1.55-2.81-1.55-6.84 0-4.96 2.31-8.57 2.31-3.61 6.42-5.71 4.12-2.1 9.41-2.27 6.05 0 10.59 1.47 4.53 1.47 7.98 3.57Z" paint-order="stroke"></path><rect width="40.32" height="61.91" x="-20.16" y="-30.95" fill="none" rx="0" ry="0" transform="translate(127.86 63.78)"></rect><path fill="#000000" d="m169.785 56.69-.25 3.02 1.18-1.68 24.02-25.37h11.43l-25.2 26.38 26.37 34.52h-11.17l-21.67-28.98-4.79 4.62.08 24.36h-8.9v-60.9h8.9Z" paint-order="stroke"></path><rect width="46.45" height="60.9" x="-23.23" y="-30.45" fill="none" rx="0" ry="0" transform="translate(184.61 63.61)"></rect><path fill="#000000" d="M218.255 93.56V30.65h.09l32.25 45.78-3.78-.76 32.17-45.02h.17v62.91h-8.73v-43l.5 4.45-22.51 32h-.17l-23.02-32 1.52-4.12v42.67Z" paint-order="stroke"></path><rect width="60.9" height="62.91" x="-30.45" y="-31.45" fill="none" rx="0" ry="0" transform="translate(249.2 62.6)"></rect><path fill="#000000" d="m290.075 93.56 26.8-63.42h.5l26.8 63.42h-10.17l-19.48-49.64 6.3-4.12-22.01 53.76Zm16.21-22.84h21.84l3.03 7.56h-27.47Z" paint-order="stroke"></path><rect width="54.1" height="63.42" x="-27.05" y="-31.71" fill="none" rx="0" ry="0" transform="translate(317.63 62.35)"></rect><path fill="#000000" d="M345.935 32.66h40.57v8.49h-16.12v52.41h-8.82V41.15h-15.63Z" paint-order="stroke"></path><rect width="40.57" height="60.9" x="-20.29" y="-30.45" fill="none" rx="0" ry="0" transform="translate(366.72 63.61)"></rect><path fill="#000000" d="M399.275 32.66h39.9v8.49h-31.16V58.7h27.8v8.49h-27.8v17.89h32.34v8.48h-41.08Z" paint-order="stroke"></path><rect width="41.08" height="60.9" x="-20.54" y="-30.45" fill="none" rx="0" ry="0" transform="translate(420.31 63.61)"></rect><path fill="#000000" d="M201.655 14.7q1.24-1.26 2.41-2.44 1.17-1.18 2.09-2.29.92-1.11 1.46-2.17.54-1.06.54-2.04 0-.82-.34-1.35-.34-.53-.89-.78t-1.17-.25q-.84 0-1.35.34-.51.34-.75.83-.24.49-.24.95 0 .66.2 1.18.2.52.58.9l-1.3 1.18q-.48-.3-.82-.87-.34-.57-.52-1.2t-.18-1.13q0-1.1.54-2.05.54-.95 1.6-1.55 1.06-.6 2.58-.6 1.28 0 2.22.59.94.59 1.47 1.55.53.96.53 2.1 0 1.3-.66 2.54t-1.66 2.44q-1 1.2-2.04 2.4l-.94-.3h5.7v2.02Z"></path><rect width="9.34" height="13.34" x="-4.67" y="-6.67" fill="none" rx="0" ry="0" transform="translate(206.54 8.53)"></rect><path fill="#000000" d="M217.835 14.76q-1.62 0-2.87-.8t-1.96-2.3q-.71-1.5-.71-3.6 0-2.28.69-3.76t1.94-2.21q1.25-.73 2.91-.71 1.62-.02 2.87.78t1.96 2.3q.71 1.5.71 3.6 0 2.16-.71 3.66t-1.96 2.27q-1.25.77-2.87.77m-.02-2.02q1.14 0 1.89-.6t1.12-1.67q.37-1.07.37-2.45 0-1.38-.37-2.42t-1.12-1.62q-.75-.58-1.89-.58-1.12 0-1.86.59t-1.11 1.64q-.37 1.05-.37 2.43 0 1.36.37 2.42.37 1.06 1.11 1.66.74.6 1.86.6"></path><rect width="11.08" height="13.38" x="-5.54" y="-6.69" fill="none" rx="0" ry="0" transform="translate(218.34 8.57)"></rect><path fill="#000000" d="M225.155 14.7q1.24-1.26 2.41-2.44 1.17-1.18 2.09-2.29.92-1.11 1.46-2.17.54-1.06.54-2.04 0-.82-.34-1.35-.34-.53-.89-.78t-1.17-.25q-.84 0-1.35.34-.51.34-.75.83-.24.49-.24.95 0 .66.2 1.18.2.52.58.9l-1.3 1.18q-.48-.3-.82-.87-.34-.57-.52-1.2t-.18-1.13q0-1.1.54-2.05.54-.95 1.6-1.55 1.06-.6 2.58-.6 1.28 0 2.22.59.94.59 1.47 1.55.53.96.53 2.1 0 1.3-.66 2.54t-1.66 2.44q-1 1.2-2.04 2.4l-.94-.3h5.7v2.02Z"></path><rect width="9.34" height="13.34" x="-4.67" y="-6.67" fill="none" rx="0" ry="0" transform="translate(230.04 8.53)"></rect><path fill="#000000" d="M239.975 14.86q-1.06 0-2.06-.4t-1.6-.98l1.1-1.64q.4.44 1.07.73t1.33.29q1.04 0 1.71-.67.67-.67.67-1.75 0-1.14-.63-1.89t-1.87-.75q-.68 0-1.27.19t-1.25.57h-.02V1.52h6.34v2.02h-4.52V6.7l-.28-.44q.34-.1.73-.16.39-.06.77-.06 1.36 0 2.29.6.93.6 1.4 1.58.47.98.47 2.16 0 1.26-.57 2.28-.57 1.02-1.56 1.61-.99.59-2.25.59"></path><rect width="8.04" height="13.34" x="-4.02" y="-6.67" fill="none" rx="0" ry="0" transform="translate(240.84 8.69)"></rect><path fill="#000000" d="m79.675 130.64-6.7-12.15h3.23l5.27 9.9-.82.05 5.22-9.95h3.2l-6.77 12.15v5.97h-2.63Z"></path><rect width="16.1" height="18.12" x="-8.05" y="-9.06" fill="none" rx="0" ry="0" transform="translate(81.53 128.05)"></rect><path fill="#000000" d="M88.125 131.29q0-1.58.75-2.84.75-1.26 2.08-1.99 1.32-.72 3.02-.72 1.73 0 3.01.72 1.29.73 2 1.99.72 1.26.72 2.84 0 1.57-.73 2.84-.72 1.26-2.01 2-1.29.73-3.04.73-1.65 0-2.96-.67-1.31-.68-2.08-1.94-.76-1.26-.76-2.96m2.55.02q0 .98.43 1.77.42.78 1.16 1.25.74.46 1.64.46 1.42 0 2.33-1 .92-1 .92-2.48 0-1.47-.92-2.48-.91-1.02-2.33-1.02-.93 0-1.65.48-.73.47-1.15 1.27-.43.8-.43 1.75"></path><rect width="11.58" height="11.12" x="-5.79" y="-5.56" fill="none" rx="0" ry="0" transform="translate(94.42 131.8)"></rect><path fill="#000000" d="M106.105 137.04q-1.45 0-2.38-.88-.92-.87-.97-2.25v-7.75h2.52v6.85q.05.83.48 1.33.42.5 1.35.55.85 0 1.52-.51.68-.52 1.06-1.42.39-.9.39-2.02v-4.78h2.53v10.45h-2.28l-.2-2.45.1.4q-.47 1.08-1.59 1.78-1.11.7-2.53.7"></path><rect width="9.85" height="10.88" x="-4.92" y="-5.44" fill="none" rx="0" ry="0" transform="translate(108.18 132.1)"></rect><path fill="#000000" d="m118.825 126.16.25 3-.1-.4q.43-.95 1.19-1.62.76-.68 1.6-1.04.84-.36 1.41-.36l-.12 2.5q-1.18-.08-2.07.45-.88.52-1.38 1.4-.5.87-.5 1.87v4.65h-2.53v-10.45Z"></path><rect width="6.6" height="10.87" x="-3.3" y="-5.43" fill="none" rx="0" ry="0" transform="translate(120.38 131.68)"></rect><path fill="#000000" d="M134.905 118.49q3 0 4.7 1.5 1.7 1.5 1.7 4.2 0 1.07-.33 2.12-.32 1.05-1.04 1.92-.71.86-1.87 1.37-1.16.51-2.84.51h-2.67v6.5h-2.6v-18.12Zm.3 9.07q1.02 0 1.71-.33.69-.34 1.07-.87.39-.52.55-1.1.17-.57.17-1.02 0-.5-.17-1.06-.16-.57-.55-1.05-.38-.49-1.03-.8-.65-.32-1.63-.32h-2.77v6.55Z"></path><rect width="11.35" height="18.12" x="-5.67" y="-9.06" fill="none" rx="0" ry="0" transform="translate(136.13 128.05)"></rect><path fill="#000000" d="M148.775 136.86q-1.47 0-2.67-.62-1.2-.63-1.9-1.84t-.7-3.01q0-1.75.73-3.01.74-1.27 1.95-1.95 1.22-.69 2.64-.69 1.5 0 2.48.62.97.63 1.5 1.5l-.15.4.25-2.1h2.32v10.45h-2.52v-2.65l.25.63q-.1.2-.43.57-.32.38-.85.77-.52.38-1.26.66-.74.27-1.64.27m.68-2.07q1.25 0 2.11-.66.86-.67 1.14-1.82v-2.15q-.3-1.02-1.22-1.7-.91-.67-2.11-.67-.9 0-1.65.44-.75.43-1.2 1.22-.45.79-.45 1.81 0 1 .46 1.8.47.8 1.24 1.27.78.46 1.68.46"></path><rect width="11.72" height="11.12" x="-5.86" y="-5.56" fill="none" rx="0" ry="0" transform="translate(149.87 131.8)"></rect><path fill="#000000" d="m161.425 126.16.25 3-.1-.4q.43-.95 1.19-1.62.76-.68 1.6-1.04.84-.36 1.41-.36l-.12 2.5q-1.18-.08-2.07.45-.88.52-1.38 1.4-.5.87-.5 1.87v4.65h-2.53v-10.45Z"></path><rect width="6.6" height="10.87" x="-3.3" y="-5.43" fill="none" rx="0" ry="0" transform="translate(162.97 131.68)"></rect><path fill="#000000" d="M169.705 121.59h2.55v4.6h2.8v1.97h-2.8v8.45h-2.55v-8.45h-1.85v-1.97h1.85Z"></path><rect width="7.2" height="15.02" x="-3.6" y="-7.51" fill="none" rx="0" ry="0" transform="translate(171.96 129.6)"></rect><path fill="#000000" d="m180.105 126.16.22 2.43-.1-.35q.5-1.13 1.61-1.8 1.12-.68 2.62-.68 1.47 0 2.42.87.95.86.98 2.26v7.72h-2.53v-6.85q-.02-.8-.47-1.31-.45-.51-1.4-.54-1.33 0-2.22 1.1-.88 1.1-.88 2.83v4.77h-2.53v-10.45Z"></path><rect width="10.03" height="10.85" x="-5.01" y="-5.42" fill="none" rx="0" ry="0" transform="translate(183.34 131.69)"></rect><path fill="#000000" d="M196.725 136.86q-1.8 0-3.1-.71t-2-1.97q-.7-1.27-.7-2.87 0-1.55.79-2.81t2.11-2.01q1.33-.75 2.95-.75 2.1 0 3.49 1.21 1.39 1.21 1.86 3.41l-8.52 2.95-.6-1.45 6.85-2.5-.53.35q-.3-.8-.95-1.38-.65-.59-1.77-.59-1.4 0-2.29.96-.89.96-.89 2.46 0 1.6.95 2.58.95.97 2.4.97.68 0 1.3-.23.63-.24 1.18-.64l1.15 1.87q-.8.53-1.77.84-.96.31-1.91.31"></path><rect width="11.2" height="11.12" x="-5.6" y="-5.56" fill="none" rx="0" ry="0" transform="translate(197.03 131.8)"></rect><path fill="#000000" d="m207.205 126.16.25 3-.1-.4q.42-.95 1.18-1.62.77-.68 1.6-1.04.84-.36 1.42-.36l-.13 2.5q-1.17-.08-2.06.45-.89.52-1.39 1.4-.5.87-.5 1.87v4.65h-2.52v-10.45Z"></path><rect width="6.6" height="10.87" x="-3.3" y="-5.43" fill="none" rx="0" ry="0" transform="translate(208.75 131.68)"></rect><path fill="#000000" d="M217.725 126.16h2.53v10.45h-2.53Zm-.12-3.75q0-.57.46-.97t1.01-.4q.55 0 1 .4.45.4.45.97 0 .63-.45 1-.45.38-1 .38t-1.01-.38q-.46-.37-.46-1"></path><rect width="2.92" height="15.57" x="-1.46" y="-7.79" fill="none" rx="0" ry="0" transform="translate(219.56 129.32)"></rect><path fill="#000000" d="m226.475 126.16.23 2.43-.1-.35q.5-1.13 1.61-1.8 1.11-.68 2.61-.68 1.48 0 2.43.87.95.86.97 2.26v7.72h-2.52v-6.85q-.03-.8-.48-1.31-.45-.51-1.4-.54-1.32 0-2.21 1.1-.89 1.1-.89 2.83v4.77h-2.52v-10.45Z"></path><rect width="10.02" height="10.85" x="-5.01" y="-5.42" fill="none" rx="0" ry="0" transform="translate(229.72 131.69)"></rect><path fill="#000000" d="M247.005 118.49q3 0 4.7 1.5 1.7 1.5 1.7 4.2 0 1.07-.33 2.12-.32 1.05-1.04 1.92-.71.86-1.87 1.37-1.16.51-2.84.51h-2.67v6.5h-2.6v-18.12Zm.3 9.07q1.02 0 1.71-.33.69-.34 1.07-.87.39-.52.55-1.1.17-.57.17-1.02 0-.5-.17-1.06-.16-.57-.55-1.05-.38-.49-1.03-.8-.65-.32-1.63-.32h-2.77v6.55Z"></path><rect width="11.35" height="18.12" x="-5.67" y="-9.06" fill="none" rx="0" ry="0" transform="translate(248.23 128.05)"></rect><path fill="#000000" d="m258.755 126.16.25 3-.1-.4q.42-.95 1.18-1.62.77-.68 1.6-1.04.84-.36 1.42-.36l-.13 2.5q-1.17-.08-2.06.45-.89.52-1.39 1.4-.5.87-.5 1.87v4.65h-2.52v-10.45Z"></path><rect width="6.6" height="10.87" x="-3.3" y="-5.43" fill="none" rx="0" ry="0" transform="translate(260.3 131.68)"></rect><path fill="#000000" d="M264.675 131.29q0-1.58.75-2.84.75-1.26 2.08-1.99 1.32-.72 3.02-.72 1.73 0 3.01.72 1.29.73 2 1.99.72 1.26.72 2.84 0 1.57-.73 2.84-.72 1.26-2.01 2-1.29.73-3.04.73-1.65 0-2.96-.67-1.31-.68-2.08-1.94-.76-1.26-.76-2.96m2.55.02q0 .98.43 1.77.42.78 1.16 1.25.74.46 1.64.46 1.42 0 2.33-1 .92-1 .92-2.48 0-1.47-.92-2.48-.91-1.02-2.33-1.02-.93 0-1.65.48-.73.47-1.15 1.27-.43.8-.43 1.75"></path><rect width="11.58" height="11.12" x="-5.79" y="-5.56" fill="none" rx="0" ry="0" transform="translate(270.96 131.8)"></rect><path fill="#000000" d="M283.575 136.86q-1.47 0-2.65-.68-1.17-.69-1.85-1.97-.67-1.27-.67-2.97 0-1.75.72-2.98.73-1.22 1.96-1.87 1.24-.65 2.79-.65 1.2 0 2.29.49 1.09.48 1.71 1.36l-.1.87v-11.27h2.53v19.42h-2.55v-2.5l.27.68q-.75.9-1.89 1.49-1.13.58-2.56.58m.78-2.12q1.32 0 2.21-.69.89-.69 1.19-1.84v-2.07q-.28-1.05-1.22-1.73-.93-.67-2.18-.67-.9 0-1.68.44-.77.43-1.24 1.22-.46.79-.46 1.81 0 .98.46 1.78.47.8 1.24 1.27.78.48 1.68.48"></path><rect width="11.9" height="19.67" x="-5.95" y="-9.84" fill="none" rx="0" ry="0" transform="translate(284.86 127.53)"></rect><path fill="#000000" d="M297.605 137.04q-1.45 0-2.38-.88-.92-.87-.97-2.25v-7.75h2.52v6.85q.05.83.48 1.33.42.5 1.35.55.85 0 1.52-.51.68-.52 1.06-1.42.39-.9.39-2.02v-4.78h2.53v10.45h-2.28l-.2-2.45.1.4q-.47 1.08-1.59 1.78-1.11.7-2.53.7"></path><rect width="9.85" height="10.88" x="-4.92" y="-5.44" fill="none" rx="0" ry="0" transform="translate(299.68 132.1)"></rect><path fill="#000000" d="M316.625 135.64q-.7.57-1.69.9-.98.32-1.98.32-1.7 0-3.02-.67-1.31-.68-2.03-1.9-.73-1.23-.73-2.9 0-1.7.78-2.93.77-1.22 2.03-1.88 1.27-.67 2.72-.67 1.3 0 2.28.35.99.35 1.72.98l-1.25 1.62q-.43-.35-1.08-.62-.65-.28-1.45-.28-.9 0-1.64.45-.73.45-1.16 1.23-.42.77-.42 1.75 0 .95.43 1.72.44.78 1.23 1.23.79.45 1.79.45.65 0 1.21-.2.56-.2.99-.53Z"></path><rect width="9.53" height="10.95" x="-4.76" y="-5.47" fill="none" rx="0" ry="0" transform="translate(312.44 131.88)"></rect><path fill="#000000" d="M320.575 121.59h2.55v4.6h2.8v1.97h-2.8v8.45h-2.55v-8.45h-1.85v-1.97h1.85Z"></path><rect width="7.2" height="15.02" x="-3.6" y="-7.51" fill="none" rx="0" ry="0" transform="translate(322.82 129.6)"></rect><path fill="#000000" d="M328.705 126.16h2.52v10.45h-2.52Zm-.13-3.75q0-.57.46-.97.47-.4 1.02-.4t1 .4q.45.4.45.97 0 .63-.45 1-.45.38-1 .38t-1.02-.38q-.46-.37-.46-1"></path><rect width="2.93" height="15.57" x="-1.47" y="-7.79" fill="none" rx="0" ry="0" transform="translate(330.54 129.32)"></rect><path fill="#000000" d="m339.525 136.91-5.87-10.75h2.97l3.88 8.13-1.55-.08 3.52-8.05h2.8l-5.62 10.75Z"></path><rect width="11.62" height="10.75" x="-5.81" y="-5.38" fill="none" rx="0" ry="0" transform="translate(339.96 132.03)"></rect><path fill="#000000" d="M347.675 126.16h2.53v10.45h-2.53Zm-.12-3.75q0-.57.46-.97t1.01-.4q.55 0 1 .4.45.4.45.97 0 .63-.45 1-.45.38-1 .38t-1.01-.38q-.46-.37-.46-1"></path><rect width="2.92" height="15.57" x="-1.46" y="-7.79" fill="none" rx="0" ry="0" transform="translate(349.51 129.32)"></rect><path fill="#000000" d="M355.155 121.59h2.55v4.6h2.8v1.97h-2.8v8.45h-2.55v-8.45h-1.85v-1.97h1.85Z"></path><rect width="7.2" height="15.02" x="-3.6" y="-7.51" fill="none" rx="0" ry="0" transform="translate(357.4 129.6)"></rect><path fill="#000000" d="m364.175 141.64 6.88-15.48h2.32l-6.75 15.48Zm2.6-4.95-5.02-10.53h2.82l4.18 9.25Z"></path><rect width="11.62" height="15.48" x="-5.81" y="-7.74" fill="none" rx="0" ry="0" transform="translate(368.06 134.4)"></rect></svg></svg>